<?xml version="1.0" encoding="iso-8859-1"?>
<!-- Uploaded to: SVG Repo, www.svgrepo.com, Generator: SVG Repo Mixer Tools -->
<svg fill="#000000" height="800px" width="800px" version="1.1" id="Capa_1" xmlns="http://www.w3.org/2000/svg" xmlns:xlink="http://www.w3.org/1999/xlink" 
	 viewBox="0 0 31.259 31.259" xml:space="preserve">
<g>
	<path d="M26.646,18.433c-0.57-1.264-3.535-2.388-4.557-2.744c-1.588-3.478-0.732-7.864-0.732-7.864
		C21.08,9.073,20.722,9.55,20.722,9.55c-0.281,2.256-2.119,4.114-2.119,4.114c-0.035,0.607,0.043,1.123,0.188,1.562
		c-2.842,4.588-5.166,2.187-6.312,0.314c0.221-0.505,0.352-1.118,0.311-1.877c0,0-1.838-1.857-2.119-4.114
		c0,0-0.357-0.477-0.639-1.725c0,0,0.857,4.372-0.719,7.847c-1.227,0.523-2.455,0.897-2.455,0.897
		c-1.33,0.512-1.891,1.275-1.891,1.275c-1.966,2.913-2.196,9.399-2.196,9.399c0.025,1.482,0.664,1.634,0.664,1.634
		c4.52,2.018,11.604,2.375,11.604,2.375c7.277,0.153,12.576-2.067,12.576-2.067c0.77-0.487,0.793-0.869,0.793-0.869
		C28.943,23.667,26.646,18.433,26.646,18.433z M18.007,25.965h-4.758V24.16h4.758V25.965z"/>
	<path d="M18.835,4.991c0.076,0.29,0.545,1.782,2.117,2.456c0,0,0.059-0.614,0.229-0.672c0,0,0.191,0.096,0.25,0.327
		c0,0,0.41-3.921-1.375-5.383l0.012-0.022c-3.725-3.287-7.943-0.788-7.943-0.788C9.035,2.901,9.9,7.195,9.9,7.195
		C15.709,7.743,18.744,5.07,18.835,4.991z"/>
	<g>
	</g>
	<g>
	</g>
	<g>
	</g>
	<g>
	</g>
	<g>
	</g>
	<g>
	</g>
	<g>
	</g>
	<g>
	</g>
	<g>
	</g>
	<g>
	</g>
	<g>
	</g>
	<g>
	</g>
	<g>
	</g>
	<g>
	</g>
	<g>
	</g>
</g>
</svg>