<svg height="24" viewBox="0 0 24 24" width="24" xmlns="http://www.w3.org/2000/svg"><path d="m18.7 9.3a.967.967 0 0 1 0 1.4l-3 3a.967.967 0 0 1 -1.4 0 .967.967 0 0 1 0-1.4l1.3-1.3h-5.6a2.006 2.006 0 0 0 -2 2 .945.945 0 0 1 -1 1 .945.945 0 0 1 -1-1 4.012 4.012 0 0 1 4-4h5.6l-1.3-1.3a.99.99 0 0 1 1.4-1.4zm5.3-5.3v13a2.946 2.946 0 0 1 -3 3h-10.6l-3.7 3.7a.908.908 0 0 1 -.7.3.6.6 0 0 1 -.4-.1.875.875 0 0 1 -.6-.9v-3h-2a2.946 2.946 0 0 1 -3-3v-14a2.946 2.946 0 0 1 3-3h17a4.012 4.012 0 0 1 4 4zm-2 0a2.006 2.006 0 0 0 -2-2h-17a.945.945 0 0 0 -1 1v14a.945.945 0 0 0 1 1h3a.945.945 0 0 1 1 1v1.6l2.3-2.3a.908.908 0 0 1 .7-.3h11a.945.945 0 0 0 1-1z"/></svg>