<svg viewBox="0 0 24 24" xmlns="http://www.w3.org/2000/svg"><path d="m20 2h-10a3 3 0 0 0 -3 3v7a3 3 0 0 0 3 3h10a3 3 0 0 0 3-3v-7a3 3 0 0 0 -3-3zm1 10a1 1 0 0 1 -1 1h-10a1 1 0 0 1 -1-1v-7a1 1 0 0 1 1-1h10a1 1 0 0 1 1 1zm-3.5-4a1.49 1.49 0 0 0 -1 .39 1.5 1.5 0 1 0 0 2.22 1.5 1.5 0 1 0 1-2.61zm-1.5 9a1 1 0 0 0 -1 1v1a1 1 0 0 1 -1 1h-10a1 1 0 0 1 -1-1v-4h1a1 1 0 0 0 0-2h-1v-1a1 1 0 0 1 1-1 1 1 0 0 0 0-2 3 3 0 0 0 -3 3v7a3 3 0 0 0 3 3h10a3 3 0 0 0 3-3v-1a1 1 0 0 0 -1-1zm-10 1h1a1 1 0 0 0 0-2h-1a1 1 0 0 0 0 2z"/></svg>